<?xml version="1.0" encoding="UTF-8" standalone="no"?>
<!DOCTYPE svg PUBLIC "-//W3C//DTD SVG 1.1//EN" "http://www.w3.org/Graphics/SVG/1.1/DTD/svg11.dtd">
<svg width="100%" height="100%" viewBox="0 0 403 403" version="1.1" xmlns="http://www.w3.org/2000/svg" xmlns:xlink="http://www.w3.org/1999/xlink" xml:space="preserve" xmlns:serif="http://www.serif.com/" style="fill-rule:evenodd;clip-rule:evenodd;stroke-linejoin:round;stroke-miterlimit:2;">
    <g id="Mesa-de-trabajo1" serif:id="Mesa de trabajo1" transform="matrix(0.444192,0,0,0.4045,-203.439808,-168.676454)">
        <rect x="458" y="417" width="907" height="996" style="fill:none;"/>
        <g transform="matrix(2.345307,0,0,2.345307,-1167.099307,-1246.754338)">
            <g transform="matrix(3.999618,0,0,4.392083,1013.83932,1021.806126)">
                <path d="M0,-45.228L0,1.67C3.362,1.087 6.512,0.41 9.402,-0.347C9.407,-0.348 9.412,-0.349 9.417,-0.351C13.045,-7.018 15.107,-14.66 15.107,-22.784C15.107,-31.601 12.673,-39.848 8.45,-46.898L8.448,-46.898C5.781,-46.273 2.956,-45.716 0,-45.228" style="fill:rgb(165,30,33);fill-rule:nonzero;"/>
            </g>
            <g transform="matrix(3.999618,0,0,4.392083,772.1476,811.753862)">
                <path d="M0,49.354L0,2.451C-4.019,1.761 -7.774,0.941 -11.231,0C-15.806,7.252 -18.464,15.834 -18.464,25.041C-18.464,32.584 -16.678,39.707 -13.519,46.024C-11.736,46.613 -9.83,47.174 -7.783,47.689C-5.356,48.302 -2.75,48.858 0,49.354" style="fill:rgb(165,30,33);fill-rule:nonzero;"/>
            </g>
            <g transform="matrix(3.999618,0,0,4.392083,799.002236,833.310207)">
                <path d="M0,45.488C0.114,45.503 0.225,45.519 0.339,45.534C6.47,46.329 13.145,46.819 20.143,46.951L20.143,-0.045C13.054,-0.175 6.287,-0.669 0,-1.463L0,45.488Z" style="fill:rgb(165,30,33);fill-rule:nonzero;"/>
            </g>
            <g transform="matrix(3.69167,1.690013,1.538998,-4.053918,872.340418,1014.383151)">
                <path d="M10.072,-2.015C16.601,0.82 22.677,3.873 28.135,7.003L10.072,50.333C4.552,47.207 -1.519,44.176 -8.012,41.361L10.072,-2.015Z" style="fill:rgb(165,30,33);fill-rule:nonzero;"/>
            </g>
            <g transform="matrix(3.999618,0,0,4.392083,1030.757304,729.393515)">
                <path d="M0,13.73C-8.622,3.382 -21.602,-3.207 -36.123,-3.207C-50.269,-3.207 -62.946,3.052 -71.562,12.941C-67.361,13.962 -62.671,14.825 -57.605,15.48C-50.501,16.4 -42.668,16.916 -34.444,16.933C-34.304,16.933 -34.166,16.937 -34.025,16.937C-23.716,16.937 -14.015,16.148 -5.573,14.769C-3.648,14.456 -1.799,14.106 -0.014,13.733C-0.009,13.732 -0.005,13.731 0,13.73" style="fill:rgb(165,30,33);fill-rule:nonzero;"/>
            </g>
            <g transform="matrix(3.999618,0,0,4.392083,992.432964,1116.885067)">
                <path d="M0,-12.371C-7.535,-11.396 -15.787,-10.86 -24.443,-10.86C-24.584,-10.86 -24.722,-10.863 -24.862,-10.864C-35.357,-10.887 -45.25,-11.69 -53.977,-13.116C-57.196,-13.642 -60.25,-14.254 -63.126,-14.939C-54.51,-4.266 -41.327,2.568 -26.541,2.568C-12.272,2.568 0.502,-3.799 9.121,-13.837C9.121,-13.837 9.12,-13.836 9.118,-13.836C6.219,-13.274 3.176,-12.783 0,-12.371" style="fill:rgb(165,30,33);fill-rule:nonzero;"/>
            </g>
            <g transform="matrix(0,4.392083,3.999618,0,1038.037009,889.230212)">
                <path d="M-12.765,-32.907L34.231,-32.907C34.127,-25.79 33.646,-19.006 32.858,-12.764L-14.088,-12.764C-13.326,-19.062 -12.865,-25.831 -12.765,-32.907" style="fill:rgb(227,30,38);fill-rule:nonzero;"/>
            </g>
            <g transform="matrix(3.999618,0,0,4.392083,894.6707,1114.907751)">
                <path d="M0,-10.41C-0.141,-10.41 -0.279,-10.413 -0.419,-10.414L-0.419,2.976C13.167,2.498 25.281,-3.75 33.561,-13.386C30.662,-12.824 27.619,-12.333 24.443,-11.921C16.908,-10.946 8.656,-10.41 0,-10.41" style="fill:rgb(227,30,38);fill-rule:nonzero;"/>
            </g>
            <g transform="matrix(3.999618,0,0,4.392083,1013.83932,815.823566)">
                <path d="M0,48.569C3.362,47.986 6.512,47.308 9.402,46.551C13.035,39.884 15.107,32.244 15.107,24.115C15.107,15.297 12.673,7.049 8.448,0C5.781,0.626 2.956,1.182 0,1.671L0,48.569Z" style="fill:rgb(227,30,38);fill-rule:nonzero;"/>
            </g>
            <g transform="matrix(3.999618,0,0,4.392083,892.99326,803.782231)">
                <path d="M0,-20.101L0,-0.004C0.141,-0.004 0.278,0 0.419,0C10.728,0 20.43,-0.789 28.872,-2.168C30.796,-2.481 32.645,-2.831 34.431,-3.204C26.143,-13.143 13.836,-19.614 0,-20.101" style="fill:rgb(227,30,38);fill-rule:nonzero;"/>
            </g>
        </g>
    </g>
</svg>
